<svg width="100%" viewBox="0 0 680 580" xmlns="http://www.w3.org/2000/svg">
<rect x="40" y="20" width="600" height="36" rx="8" fill="#EEEDFE" stroke="#534AB7" stroke-width="0.5"/>
<text font-family="sans-serif" font-size="14" font-weight="500" x="60" y="38" dominant-baseline="central" fill="#26215C">trade-data-pipeline/</text>
<text font-family="sans-serif" font-size="12" x="630" y="38" text-anchor="end" dominant-baseline="central" fill="#3C3489">GitHub repo root</text>
<line x1="60" y1="56" x2="60" y2="100" stroke="#888" stroke-width="0.5" opacity="0.3"/>
<line x1="60" y1="80" x2="80" y2="80" stroke="#888" stroke-width="0.5" opacity="0.3"/>
<rect x="80" y="66" width="580" height="30" rx="6" fill="#E1F5EE" stroke="#0F6E56" stroke-width="0.5"/>
<text font-family="sans-serif" font-size="13" font-weight="500" x="98" y="81" dominant-baseline="central" fill="#085041">terraform/</text>
<text font-family="sans-serif" font-size="12" x="638" y="81" text-anchor="end" dominant-baseline="central" fill="#0F6E56">Infrastructure as code — provisions all Snowflake resources</text>
<line x1="60" y1="96" x2="60" y2="152" stroke="#888" stroke-width="0.5" opacity="0.3"/>
<line x1="60" y1="118" x2="80" y2="118" stroke="#888" stroke-width="0.5" opacity="0.3"/>
<rect x="80" y="104" width="580" height="30" rx="6" fill="#E1F5EE" stroke="#0F6E56" stroke-width="0.5"/>
<text font-family="sans-serif" font-size="13" font-weight="500" x="98" y="119" dominant-baseline="central" fill="#085041">data_generator/</text>
<text font-family="sans-serif" font-size="12" x="638" y="119" text-anchor="end" dominant-baseline="central" fill="#0F6E56">Python trade generator + Snowflake ingestion script</text>
<line x1="60" y1="134" x2="60" y2="300" stroke="#888" stroke-width="0.5" opacity="0.3"/>
<line x1="60" y1="156" x2="80" y2="156" stroke="#888" stroke-width="0.5" opacity="0.3"/>
<rect x="80" y="142" width="580" height="30" rx="6" fill="#FAEEDA" stroke="#854F0B" stroke-width="0.5"/>
<text font-family="sans-serif" font-size="13" font-weight="500" x="98" y="157" dominant-baseline="central" fill="#412402">dbt/trade_pipeline/</text>
<text font-family="sans-serif" font-size="12" x="638" y="157" text-anchor="end" dominant-baseline="central" fill="#633806">DBT project — all transformation models</text>
<line x1="100" y1="172" x2="100" y2="280" stroke="#888" stroke-width="0.5" opacity="0.3"/>
<line x1="100" y1="194" x2="120" y2="194" stroke="#888" stroke-width="0.5" opacity="0.3"/>
<rect x="120" y="180" width="540" height="28" rx="6" fill="#F1EFE8" stroke="#5F5E5A" stroke-width="0.5"/>
<text font-family="sans-serif" font-size="12" x="138" y="194" dominant-baseline="central" fill="#2C2C2A">models/staging/</text>
<text font-family="sans-serif" font-size="12" x="638" y="194" text-anchor="end" dominant-baseline="central" fill="#444441">stg_trades_raw.sql — clean + type cast raw trades</text>
<line x1="100" y1="208" x2="100" y2="260" stroke="#888" stroke-width="0.5" opacity="0.3"/>
<line x1="100" y1="232" x2="120" y2="232" stroke="#888" stroke-width="0.5" opacity="0.3"/>
<rect x="120" y="218" width="540" height="28" rx="6" fill="#F1EFE8" stroke="#5F5E5A" stroke-width="0.5"/>
<text font-family="sans-serif" font-size="12" x="138" y="232" dominant-baseline="central" fill="#2C2C2A">models/intermediate/</text>
<text font-family="sans-serif" font-size="12" x="638" y="232" text-anchor="end" dominant-baseline="central" fill="#444441">int_trades_validated.sql — all 6 business rules</text>
<line x1="100" y1="246" x2="100" y2="280" stroke="#888" stroke-width="0.5" opacity="0.3"/>
<line x1="100" y1="270" x2="120" y2="270" stroke="#888" stroke-width="0.5" opacity="0.3"/>
<rect x="120" y="256" width="540" height="28" rx="6" fill="#F1EFE8" stroke="#5F5E5A" stroke-width="0.5"/>
<text font-family="sans-serif" font-size="12" x="138" y="270" dominant-baseline="central" fill="#2C2C2A">models/mart/</text>
<text font-family="sans-serif" font-size="12" x="638" y="270" text-anchor="end" dominant-baseline="central" fill="#444441">trades_valid.sql + trades_rejected.sql</text>
<line x1="60" y1="304" x2="60" y2="380" stroke="#888" stroke-width="0.5" opacity="0.3"/>
<line x1="60" y1="318" x2="80" y2="318" stroke="#888" stroke-width="0.5" opacity="0.3"/>
<rect x="80" y="304" width="580" height="30" rx="6" fill="#E6F1FB" stroke="#185FA5" stroke-width="0.5"/>
<text font-family="sans-serif" font-size="13" font-weight="500" x="98" y="319" dominant-baseline="central" fill="#042C53">airflow/dags/</text>
<text font-family="sans-serif" font-size="12" x="638" y="319" text-anchor="end" dominant-baseline="central" fill="#185FA5">trade_pipeline_dag.py — orchestration + audit logging</text>
<line x1="60" y1="334" x2="60" y2="380" stroke="#888" stroke-width="0.5" opacity="0.3"/>
<line x1="60" y1="356" x2="80" y2="356" stroke="#888" stroke-width="0.5" opacity="0.3"/>
<rect x="80" y="342" width="580" height="30" rx="6" fill="#E6F1FB" stroke="#185FA5" stroke-width="0.5"/>
<text font-family="sans-serif" font-size="13" font-weight="500" x="98" y="357" dominant-baseline="central" fill="#042C53">.github/workflows/</text>
<text font-family="sans-serif" font-size="12" x="638" y="357" text-anchor="end" dominant-baseline="central" fill="#185FA5">dbt_ci.yml + dbt_deploy.yml — CI on PR, CD on merge</text>
<line x1="60" y1="372" x2="60" y2="418" stroke="#888" stroke-width="0.5" opacity="0.3"/>
<line x1="60" y1="394" x2="80" y2="394" stroke="#888" stroke-width="0.5" opacity="0.3"/>
<rect x="80" y="380" width="580" height="30" rx="6" fill="#F1EFE8" stroke="#5F5E5A" stroke-width="0.5"/>
<text font-family="sans-serif" font-size="13" font-weight="500" x="98" y="395" dominant-baseline="central" fill="#2C2C2A">docs/</text>
<text font-family="sans-serif" font-size="12" x="638" y="395" text-anchor="end" dominant-baseline="central" fill="#444441">architecture_diagram.svg + project_structure.svg</text>
<line x1="60" y1="410" x2="60" y2="432" stroke="#888" stroke-width="0.5" opacity="0.3"/>
<line x1="60" y1="432" x2="80" y2="432" stroke="#888" stroke-width="0.5" opacity="0.3"/>
<rect x="80" y="418" width="580" height="30" rx="6" fill="#F1EFE8" stroke="#5F5E5A" stroke-width="0.5"/>
<text font-family="sans-serif" font-size="13" font-weight="500" x="98" y="433" dominant-baseline="central" fill="#2C2C2A">README.md</text>
<text font-family="sans-serif" font-size="12" x="638" y="433" text-anchor="end" dominant-baseline="central" fill="#444441">Setup guide, architecture, business rules, scalability</text>
</svg>
